<svg version="1.0" xmlns="http://www.w3.org/2000/svg" xmlns:xlink="http://www.w3.org/1999/xlink" width="100%" height="100%" viewBox="0 0 340.000000 250.000000" preserveAspectRatio="xMidYMid meet" color-interpolation-filters="sRGB" style="margin: auto;"> <rect data-v-70b83f88="" x="0" y="0" width="100%" height="100%" fill="#ffffff" fill-opacity="0" class="background"></rect> <rect data-v-70b83f88="" x="0" y="0" width="100%" height="100%" fill="url(#watermark)" fill-opacity="1" class="watermarklayer"></rect> <g data-v-70b83f88="" fill="#383c93" class="iconlettersvg-g iconlettersvg" transform="translate(103.30362701416016,92.92188262939453)"><g><g class="tp-name" transform="matrix(1,0,0,1,0,0)" opacity="1"><g transform="scale(1)"><g transform="translate(0, 0)"><g class="name-imagesvg"><g><rect fill="#383c93" fill-opacity="0" stroke-width="2" x="0" y="0" width="42.60908585895226" height="50" class="image-rect"></rect> <svg x="0" y="0" width="42.60908585895226" height="50" filtersec="colorsb4785447012" class="image-svg-svg primary" style="overflow: visible;"><svg xmlns="http://www.w3.org/2000/svg" viewBox="0 0 11.93 13.96"><title>资源 23</title><path d="M1.6 14A1.6 1.6 0 0 1 0 12.36V1.62a1.6 1.6 0 0 1 3.2 0v10.74A1.6 1.6 0 0 1 1.6 14z" fill="#7d5f92"></path><path d="M10.32 8.57A1.6 1.6 0 0 1 8.72 7a3.78 3.78 0 0 0-3.43-3.78H1.65a1.6 1.6 0 0 1 0-3.2S5.26 0 5.52 0a7 7 0 0 1 6.41 7 1.6 1.6 0 0 1-1.61 1.57zm-5-5.35zm0 0z" fill="#00ada8"></path><path d="M1.65 14a1.6 1.6 0 1 1 0-3.2h3.61A3.77 3.77 0 0 0 8.72 7a1.61 1.61 0 0 1 3.21 0 7 7 0 0 1-6.47 7zm3.59-3.22z" fill="#d72f5a"></path></svg></svg> <!----></g></g></g><g transform="translate(45.60908585895226, 0)"><g class="name-imagesvg"><g><rect fill="#383c93" fill-opacity="0" stroke-width="2" x="0" y="0" width="35.69642913706444" height="50" class="image-rect"></rect> <svg x="0" y="0" width="35.69642913706444" height="50" filtersec="colorsb3833606797" class="image-svg-svg primary" style="overflow: visible;"><svg xmlns="http://www.w3.org/2000/svg" viewBox="0 0 9.99 13.95"><title>资源 27</title><path d="M1.6 14A1.6 1.6 0 0 1 0 12.35V1.6a1.6 1.6 0 0 1 3.2 0v10.75A1.6 1.6 0 0 1 1.6 14z" fill="#00ada8"></path><path d="M6.42 8.57H1.6a1.6 1.6 0 0 1 0-3.2h4.82a1.6 1.6 0 0 1 0 3.2z" fill="#e88733"></path><path d="M8.39 3.21H1.6A1.6 1.6 0 0 1 1.6 0h6.79a1.6 1.6 0 0 1 0 3.2z" fill="#7d5f92"></path><path d="M8.39 13.91H1.6a1.6 1.6 0 0 1 0-3.2h6.79a1.6 1.6 0 1 1 0 3.2z" fill="#70b0be"></path></svg></svg> <!----></g></g></g><g transform="translate(84.30551499601671, 0)"><g class="name-imagesvg"><g><rect fill="#383c93" fill-opacity="0" stroke-width="2" x="0" y="0" width="49.08722977336533" height="50" class="image-rect"></rect> <svg x="0" y="0" width="49.08722977336533" height="50" filtersec="colorsb1816425152" class="image-svg-svg primary" style="overflow: visible;"><svg xmlns="http://www.w3.org/2000/svg" viewBox="0 0 13.81 13.95"><title>资源 14</title><path d="M6.94 14a1.65 1.65 0 0 1-.71-.17 1.6 1.6 0 0 1-.73-2.14L10.77.9a1.6 1.6 0 1 1 2.88 1.41L8.38 13.05a1.61 1.61 0 0 1-1.44.95z" fill="#70b0be"></path><path d="M6.87 14a1.61 1.61 0 0 1-1.44-.9L.16 2.31A1.6 1.6 0 1 1 3 .9l5.31 10.74a1.6 1.6 0 0 1-.73 2.14 1.65 1.65 0 0 1-.71.22z" fill="#e88733"></path></svg></svg> <!----></g></g></g></g></g></g> <g data-gra="path-slogan" fill-rule="" class="tp-slogan" fill="#383c93" transform="matrix(1,0,0,1,53.82637310028076,56.0002326965332)" opacity="1"><!----> <!----> <g transform="scale(1, 1)"><g transform="scale(1)"><path d="M2.71-7.03L2.71 0L3.72 0L3.72-7.03L6.10-7.03L6.10-7.87L0.34-7.87L0.34-7.03ZM7.48-7.87L7.48-3.25C7.48-2.62 7.55-2.09 7.69-1.66C7.84-1.22 8.03-0.87 8.29-0.61C8.54-0.34 8.84-0.15 9.19-0.03C9.53 0.09 9.91 0.14 10.31 0.14C10.71 0.14 11.08 0.09 11.42-0.03C11.77-0.15 12.07-0.34 12.32-0.61C12.57-0.87 12.77-1.22 12.91-1.66C13.06-2.09 13.13-2.62 13.13-3.25L13.13-7.87L12.17-7.87L12.17-3.23C12.17-2.76 12.12-2.36 12.02-2.04C11.93-1.72 11.80-1.46 11.63-1.27C11.46-1.08 11.26-0.94 11.04-0.86C10.82-0.77 10.57-0.73 10.31-0.73C10.05-0.73 9.81-0.77 9.59-0.86C9.36-0.94 9.17-1.08 9.01-1.27C8.84-1.46 8.71-1.72 8.62-2.04C8.52-2.36 8.47-2.76 8.47-3.23L8.47-7.87ZM16.88-7.03L16.88 0L17.89 0L17.89-7.03L20.27-7.03L20.27-7.87L14.51-7.87L14.51-7.03ZM21.24-1.72L20.64-1.02C20.98-0.66 21.39-0.38 21.86-0.17C22.34 0.04 22.85 0.14 23.40 0.14C23.82 0.14 24.19 0.09 24.52-0.03C24.84-0.15 25.12-0.31 25.36-0.51C25.59-0.71 25.77-0.95 25.89-1.22C26.01-1.50 26.08-1.79 26.08-2.10C26.08-2.39 26.03-2.64 25.95-2.86C25.87-3.08 25.75-3.27 25.61-3.44C25.46-3.60 25.29-3.75 25.09-3.87C24.89-3.99 24.68-4.10 24.46-4.20L23.34-4.68C23.18-4.74 23.02-4.81 22.87-4.89C22.72-4.97 22.58-5.05 22.45-5.15C22.32-5.25 22.22-5.37 22.15-5.50C22.07-5.63 22.03-5.80 22.03-5.99C22.03-6.35 22.17-6.63 22.43-6.83C22.70-7.04 23.06-7.14 23.50-7.14C23.86-7.14 24.19-7.07 24.49-6.94C24.78-6.81 25.04-6.63 25.28-6.40L25.82-7.04C25.54-7.33 25.20-7.57 24.80-7.75C24.40-7.93 23.97-8.02 23.50-8.02C23.14-8.02 22.81-7.96 22.51-7.86C22.21-7.76 21.95-7.61 21.73-7.42C21.51-7.23 21.33-7.01 21.21-6.76C21.09-6.50 21.02-6.22 21.02-5.93C21.02-5.64 21.07-5.39 21.17-5.17C21.26-4.95 21.39-4.76 21.54-4.60C21.69-4.44 21.86-4.30 22.06-4.19C22.25-4.08 22.44-3.98 22.62-3.90L23.75-3.41C23.93-3.32 24.10-3.24 24.26-3.16C24.42-3.08 24.56-2.99 24.68-2.89C24.79-2.79 24.89-2.67 24.95-2.53C25.02-2.39 25.06-2.22 25.06-2.02C25.06-1.63 24.91-1.32 24.62-1.09C24.34-0.85 23.93-0.73 23.41-0.73C23.00-0.73 22.61-0.82 22.23-1.00C21.85-1.18 21.52-1.42 21.24-1.72Z" transform="translate(-0.336, 8.016)"></path></g></g></g></g><defs v-gra="od"></defs></svg>